<?xml version="1.0" encoding="UTF-8" standalone="no"?>
<svg
   xmlns:dc="http://purl.org/dc/elements/1.1/"
   xmlns:cc="http://creativecommons.org/ns#"
   xmlns:rdf="http://www.w3.org/1999/02/22-rdf-syntax-ns#"
   xmlns:svg="http://www.w3.org/2000/svg"
   xmlns="http://www.w3.org/2000/svg"
   xmlns:sodipodi="http://sodipodi.sourceforge.net/DTD/sodipodi-0.dtd"
   xmlns:inkscape="http://www.inkscape.org/namespaces/inkscape"
   viewBox="0 0 338.20798 77.303633"
   version="1.1"
   id="svg2595"
   sodipodi:docname="marketicon.svg"
   inkscape:version="1.0.2-2 (e86c870879, 2021-01-15)"
   width="338.20798"
   height="77.303635">
  <metadata
     id="metadata2599">
    <rdf:RDF>
      <cc:Work
         rdf:about="">
        <dc:format>image/svg+xml</dc:format>
        <dc:type
           rdf:resource="http://purl.org/dc/dcmitype/StillImage" />
        <dc:title></dc:title>
      </cc:Work>
    </rdf:RDF>
  </metadata>
  <sodipodi:namedview
     pagecolor="#ffffff"
     bordercolor="#666666"
     borderopacity="1"
     objecttolerance="10"
     gridtolerance="10"
     guidetolerance="10"
     inkscape:pageopacity="0"
     inkscape:pageshadow="2"
     inkscape:window-width="1920"
     inkscape:window-height="1017"
     id="namedview2597"
     showgrid="false"
     inkscape:zoom="2.1366272"
     inkscape:cx="146.32717"
     inkscape:cy="6.0195301"
     inkscape:window-x="-8"
     inkscape:window-y="-8"
     inkscape:window-maximized="1"
     inkscape:current-layer="svg2595"
     inkscape:document-rotation="0" />
  <defs
     id="defs2585">
    <style
       id="style2583">.cls-1{fill:#4d72f7;}.cls-2{fill:#3d62c9;}.cls-3{fill:#fff;}</style>
  </defs>
  <g
     id="g301"
     transform="translate(207.19642,-112.55743)">
    <g
       id="g216">
      <g
         id="Layer_2"
         data-name="Layer 2"
         transform="matrix(1.0428271,0,0,1.0428271,-207.43651,112.58871)">
        <g
           id="Layer_2-2"
           data-name="Layer 2">
          <g
             id="Group_2880"
             data-name="Group 2880">
            <path
               id="Path_7076"
               data-name="Path 7076"
               class="cls-1"
               d="m 62.05,31 a 30.91,30.91 0 1 1 0,-0.24 z" />
            <path
               id="Path_7077"
               data-name="Path 7077"
               class="cls-2"
               d="M 59.3,43.82 A 31.08,31.08 0 0 1 21.21,60.47 l -5.93,-20 28.78,-14.4 z" />
            <g
               id="Group_2877"
               data-name="Group 2877">
              <path
                 id="Path_7078"
                 data-name="Path 7078"
                 class="cls-3"
                 d="m 47.61,36 a 16.59,16.59 0 1 1 -23.37,-15.12 3.23,3.23 0 0 0 1.89,-3 L 26,13.73 a 0.26,0.26 0 0 0 -0.26,-0.26 v 0 a 2.08,2.08 0 0 1 -2.08,-1.81 2,2 0 0 1 1.8,-2.25 h 0.22 10.5 a 2.08,2.08 0 0 1 2.08,1.81 2,2 0 0 1 -1.79,2.25 h -0.23 v 0 a 0.39,0.39 0 0 0 -0.4,0.4 L 36,17.93 a 3.27,3.27 0 0 0 1.92,3 16.59,16.59 0 0 1 9.69,15.07 z" />
              <path
                 id="Path_7079"
                 data-name="Path 7079"
                 class="cls-1"
                 d="m 44.68,35.87 a 13.52,13.52 0 0 1 -26.81,2.52 c 3.2,-4.09 7.81,-3.53 13.55,-0.2 a 10.05,10.05 0 0 0 13.26,-2.62 z" />
            </g>
          </g>
        </g>
      </g>
      <g
         id="g92"
         style="fill:#4d72f7;fill-opacity:1"
         transform="translate(-25.382264,8.1430717)">
        <path
           d="m -98.521107,150.78481 q -3.520003,0 -5.200003,-1.8 -1.64,-1.8 -1.64,-4.96 v -7.72 h -2.56 v -4.88 h 2.56 v -3.96 l 6.440003,-1.72 v 5.68 h 4.6 l -0.28,4.88 h -4.32 v 7.28 q 0,1.36 0.68,1.92 0.68,0.52 2.04,0.52 1.16,0 2.36,-0.4 v 4.36 q -1.88,0.8 -4.68,0.8 z"
           style="font-style:normal;font-variant:normal;font-weight:600;font-stretch:normal;font-size:40px;line-height:1.25;font-family:Kanit;-inkscape-font-specification:'Kanit Semi-Bold';letter-spacing:0px;fill:#4d72f7;fill-opacity:1;stroke:none"
           id="path25" />
        <path
           d="m -91.361161,150.38481 v -26.96 h 6.44 v 9.4 q 1.08,-0.8 2.68,-1.28 1.6,-0.52 3.44,-0.52 3.8,0 5.56,1.8 1.8,1.8 1.8,5.52 v 12.04 h -6.44 v -11.6 q 0,-1.64 -0.68,-2.32 -0.68,-0.68 -2.44,-0.68 -1.04,0 -2.12,0.48 -1.08,0.48 -1.8,1.2 v 12.92 z"
           style="font-style:normal;font-variant:normal;font-weight:600;font-stretch:normal;font-size:40px;line-height:1.25;font-family:Kanit;-inkscape-font-specification:'Kanit Semi-Bold';letter-spacing:0px;fill:#4d72f7;fill-opacity:1;stroke:none"
           id="path27" />
        <path
           d="m -57.641209,150.78481 q -4.96,0 -7.96,-2.44 -3,-2.48 -3,-7.44 0,-4.52 2.48,-7.2 2.48,-2.68 7.44,-2.68 4.52,0 7,2.32 2.48,2.32 2.48,6.24 v 3.4 h -13.44 q 0.44,1.88 2.04,2.64 1.64,0.72 4.44,0.72 1.56,0 3.16,-0.28 1.64,-0.28 2.72,-0.72 v 4.2 q -1.36,0.64 -3.24,0.92 -1.88,0.32 -4.12,0.32 z m -5,-11.52 h 7.84 v -0.84 q 0,-1.4 -0.84,-2.2 -0.84,-0.84 -2.84,-0.84 -2.32,0 -3.24,0.96 -0.92,0.92 -0.92,2.92 z"
           style="font-style:normal;font-variant:normal;font-weight:600;font-stretch:normal;font-size:40px;line-height:1.25;font-family:Kanit;-inkscape-font-specification:'Kanit Semi-Bold';letter-spacing:0px;fill:#4d72f7;fill-opacity:1;stroke:none"
           id="path29" />
        <path
           d="m -40.08125,150.78481 q -3.12,0 -4.48,-1.36 -1.36,-1.36 -1.36,-4.36 v -21.64 h 6.44 v 21 q 0,0.92 0.36,1.28 0.4,0.32 1.16,0.32 1.08,0 1.92,-0.28 v 4.36 q -0.92,0.36 -1.84,0.52 -0.88,0.16 -2.2,0.16 z"
           style="font-style:normal;font-variant:normal;font-weight:600;font-stretch:normal;font-size:40px;line-height:1.25;font-family:Kanit;-inkscape-font-specification:'Kanit Semi-Bold';letter-spacing:0px;fill:#4d72f7;fill-opacity:1;stroke:none"
           id="path31" />
        <path
           d="m -27.681304,150.78481 q -1.8,0 -3.36,-0.64 -1.52,-0.64 -2.44,-1.96 -0.92,-1.36 -0.92,-3.36 0,-2.92 1.96,-4.56 2,-1.68 5.96,-1.68 h 5.28 v -0.44 q 0,-1.44 -0.96,-2.04 -0.96,-0.64 -3.6,-0.64 -3.24,0 -6.36,1 v -4.16 q 1.4,-0.56 3.4,-0.92 2.04,-0.36 4.28,-0.36 4.4,0 6.88,1.8 2.52,1.8 2.52,5.72 v 11.84 h -5.64 l -0.32,-1.6 q -1.04,0.96 -2.68,1.48 -1.6,0.52 -4,0.52 z m 2.04,-3.96 q 1.52,0 2.64,-0.52 1.12,-0.52 1.8,-1.32 v -2.68 h -4.56 q -2.84,0 -2.84,2.28 0,1.04 0.72,1.64 0.72,0.6 2.24,0.6 z"
           style="font-style:normal;font-variant:normal;font-weight:600;font-stretch:normal;font-size:40px;line-height:1.25;font-family:Kanit;-inkscape-font-specification:'Kanit Semi-Bold';letter-spacing:0px;fill:#4d72f7;fill-opacity:1;stroke:none"
           id="path33" />
        <path
           d="m 0.71865265,150.78481 q -1.92000005,0 -3.36000005,-0.48 -1.44,-0.52 -2.6,-1.52 l -0.32,1.6 h -5.5999996 v -26.96 h 6.4399996 v 8.88 q 1.08,-0.64 2.44,-0.96 1.36000005,-0.32 2.80000005,-0.32 4.15999995,0 6.55999995,2.32 2.4,2.28 2.4,7.4 0,5.12 -2.36,7.6 -2.36,2.44 -6.39999995,2.44 z m -1.84000005,-4.68 q 2.16,0 3.08,-1.28 0.96,-1.32 0.96,-4.04 0,-2.8 -1,-3.92 -0.95999995,-1.12 -3.04,-1.12 -2.28,0 -3.6,1.2 v 7.72 q 1.44,1.44 3.6,1.44 z"
           style="font-style:normal;font-variant:normal;font-weight:600;font-stretch:normal;font-size:40px;line-height:1.25;font-family:Kanit;-inkscape-font-specification:'Kanit Semi-Bold';letter-spacing:0px;fill:#4d72f7;fill-opacity:1;stroke:none"
           id="path35" />
        <path
           d="m 11.958636,150.38481 v -4.72 h 5.16 v 4.72 z"
           style="font-style:normal;font-variant:normal;font-weight:600;font-stretch:normal;font-size:40px;line-height:1.25;font-family:Kanit;-inkscape-font-specification:'Kanit Semi-Bold';letter-spacing:0px;fill:#4d72f7;fill-opacity:1;stroke:none"
           id="path37" />
        <g
           id="g75"
           style="fill:#4d72f7;fill-opacity:1">
          <path
             d="m 21.278635,150.38481 v -14.08 h -2.52 v -4.88 h 2.52 v -1.56 q 0,-3.08 1.76,-5.08 1.76,-2 5.24,-2 1.44,0 2.56,0.24 1.12,0.2 2.12,0.6 v 4.32 q -0.6,-0.2 -1.16,-0.32 -0.56,-0.12 -1.24,-0.12 -1.56,0 -2.2,0.6 -0.64,0.56 -0.64,1.88 v 1.44 h 4.68 l -0.28,4.88 h -4.4 v 14.08 z"
             style="font-style:normal;font-variant:normal;font-weight:600;font-stretch:normal;font-size:40px;line-height:1.25;font-family:Kanit;-inkscape-font-specification:'Kanit Semi-Bold';letter-spacing:0px;fill:#4d72f7;fill-opacity:1;stroke:none"
             id="path39" />
          <path
             d="m 37.474086,128.42481 v -4.84 h 7 v 4.84 z m 0.52,21.96 v -14.2 h -2.8 l 0.56,-4.76 h 8.68 v 18.96 z"
             style="font-style:normal;font-variant:normal;font-weight:600;font-stretch:normal;font-size:40px;line-height:1.25;font-family:Kanit;-inkscape-font-specification:'Kanit Semi-Bold';letter-spacing:0px;fill:#4d72f7;fill-opacity:1;stroke:none"
             id="path41" />
          <path
             d="m 48.554011,150.38481 v -18.96 h 6 l 0.2,1.64 q 1.16,-0.8 2.92,-1.4 1.76,-0.64 3.76,-0.64 3.68,0 5.36,1.76 1.68,1.76 1.68,5.44 v 12.16 h -6.44 v -11.64 q 0,-1.6 -0.68,-2.28 -0.68,-0.68 -2.44,-0.68 -1.04,0 -2.12,0.48 -1.08,0.48 -1.8,1.2 v 12.92 z"
             style="font-style:normal;font-variant:normal;font-weight:600;font-stretch:normal;font-size:40px;line-height:1.25;font-family:Kanit;-inkscape-font-specification:'Kanit Semi-Bold';letter-spacing:0px;fill:#4d72f7;fill-opacity:1;stroke:none"
             id="path43" />
          <path
             d="m 77.673931,150.78481 q -1.8,0 -3.36,-0.64 -1.52,-0.64 -2.44,-1.96 -0.92,-1.36 -0.92,-3.36 0,-2.92 1.96,-4.56 2,-1.68 5.96,-1.68 h 5.28 v -0.44 q 0,-1.44 -0.96,-2.04 -0.96,-0.64 -3.6,-0.64 -3.24,0 -6.36,1 v -4.16 q 1.4,-0.56 3.4,-0.92 2.04,-0.36 4.28,-0.36 4.4,0 6.88,1.8 2.52,1.8 2.52,5.72 v 11.84 h -5.64 l -0.32,-1.6 q -1.04,0.96 -2.68,1.48 -1.6,0.52 -4,0.52 z m 2.04,-3.96 q 1.52,0 2.64,-0.52 1.12,-0.52 1.8,-1.32 v -2.68 h -4.56 q -2.84,0 -2.84,2.28 0,1.04 0.72,1.64 0.72,0.6 2.24,0.6 z"
             style="font-style:normal;font-variant:normal;font-weight:600;font-stretch:normal;font-size:40px;line-height:1.25;font-family:Kanit;-inkscape-font-specification:'Kanit Semi-Bold';letter-spacing:0px;fill:#4d72f7;fill-opacity:1;stroke:none"
             id="path45" />
          <path
             d="m 94.193888,150.38481 v -18.96 h 6.000002 l 0.2,1.64 q 1.16,-0.8 2.92,-1.4 1.76,-0.64 3.76,-0.64 3.68,0 5.36,1.76 1.68,1.76 1.68,5.44 v 12.16 h -6.44 v -11.64 q 0,-1.6 -0.68,-2.28 -0.68,-0.68 -2.44,-0.68 -1.04,0 -2.12,0.48 -1.08,0.48 -1.8,1.2 v 12.92 z"
             style="font-style:normal;font-variant:normal;font-weight:600;font-stretch:normal;font-size:40px;line-height:1.25;font-family:Kanit;-inkscape-font-specification:'Kanit Semi-Bold';letter-spacing:0px;fill:#4d72f7;fill-opacity:1;stroke:none"
             id="path47" />
          <path
             d="m 127.75384,150.78481 q -5.08,0 -7.96,-2.48 -2.84,-2.48 -2.84,-7.4 0,-5 2.96,-7.44 3,-2.44 7.96,-2.44 2.08,0 3.6,0.32 1.56,0.28 3,0.96 v 4.56 q -2.24,-1.08 -5.24,-1.08 -2.8,0 -4.28,1.12 -1.44,1.12 -1.44,4 0,2.68 1.36,3.92 1.36,1.2 4.32,1.2 2.92,0 5.32,-1.2 v 4.76 q -1.44,0.64 -3.12,0.92 -1.64,0.28 -3.64,0.28 z"
             style="font-style:normal;font-variant:normal;font-weight:600;font-stretch:normal;font-size:40px;line-height:1.25;font-family:Kanit;-inkscape-font-specification:'Kanit Semi-Bold';letter-spacing:0px;fill:#4d72f7;fill-opacity:1;stroke:none"
             id="path49" />
          <path
             d="m 147.95382,150.78481 q -4.96,0 -7.96,-2.44 -3,-2.48 -3,-7.44 0,-4.52 2.48,-7.2 2.48,-2.68 7.44,-2.68 4.52,0 7,2.32 2.48,2.32 2.48,6.24 v 3.4 h -13.44 q 0.44,1.88 2.04,2.64 1.64,0.72 4.44,0.72 1.56,0 3.16,-0.28 1.64,-0.28 2.72,-0.72 v 4.2 q -1.36,0.64 -3.24,0.92 -1.88,0.32 -4.12,0.32 z m -5,-11.52 h 7.84 v -0.84 q 0,-1.4 -0.84,-2.2 -0.84,-0.84 -2.84,-0.84 -2.32,0 -3.24,0.96 -0.92,0.92 -0.92,2.92 z"
             style="font-style:normal;font-variant:normal;font-weight:600;font-stretch:normal;font-size:40px;line-height:1.25;font-family:Kanit;-inkscape-font-specification:'Kanit Semi-Bold';letter-spacing:0px;fill:#4d72f7;fill-opacity:1;stroke:none"
             id="path51" />
        </g>
      </g>
    </g>
    <text
       xml:space="preserve"
       style="font-style:normal;font-variant:normal;font-weight:normal;font-stretch:normal;font-size:29.1465px;line-height:1.25;font-family:KANIT;-inkscape-font-specification:KANIT;letter-spacing:3.69773px;fill:#4d4d4d;fill-opacity:1;stroke:none;stroke-width:0.728666"
       x="-64.347572"
       y="183.56541"
       id="text96"><tspan
         sodipodi:role="line"
         id="tspan94"
         x="-64.347572"
         y="183.56541"
         style="font-style:normal;font-variant:normal;font-weight:normal;font-stretch:normal;font-family:KANIT;-inkscape-font-specification:KANIT;fill:#4d4d4d;fill-opacity:1;stroke-width:0.728666">marketplace</tspan></text>
  </g>
</svg>
